<?xml version="1.0" encoding="utf-8"?>
<!-- Generator: Adobe Illustrator 19.1.0, SVG Export Plug-In . SVG Version: 6.00 Build 0)  -->
<svg version="1.1" id="Layer_1" xmlns="http://www.w3.org/2000/svg" xmlns:xlink="http://www.w3.org/1999/xlink" x="0px" y="0px"
	 width="185.8px" height="53.8px" viewBox="-431.2 254.1 185.8 53.8" style="enable-background:new -431.2 254.1 185.8 53.8;"
	 xml:space="preserve">
<style type="text/css">
	.st0{display:none;stroke:#000000;stroke-miterlimit:10;}
	.st1{fill:#FFFFFF;}
	.st2{fill:none;}
	.st3{fill:#BE273C;}
</style>
<rect x="-1354.2" y="-214" class="st0" width="1318" height="885"/>
<g>
	<g>
		<path class="st1" d="M-343.7,273.4h17.2v-7.8c0-1.7-0.1-2.9-0.3-3.7c-0.2-0.8-0.5-1.4-1-2c-0.5-0.5-1-0.8-1.5-1
			c-0.6-0.2-1.3-0.3-2.3-0.4V258h15.5v0.6c-0.9,0-1.7,0.2-2.2,0.4c-0.6,0.2-1.1,0.5-1.5,1c-0.5,0.5-0.8,1.2-1,2
			c-0.2,0.8-0.3,2-0.3,3.7v17.8c0,1.6,0.1,2.9,0.3,3.7c0.2,0.8,0.5,1.5,1,2c0.5,0.5,1,0.8,1.5,1c0.6,0.2,1.3,0.4,2.2,0.4v0.6h-15.5
			v-0.6c0.9,0,1.7-0.2,2.3-0.4c0.6-0.2,1.1-0.6,1.5-1c0.5-0.5,0.8-1.2,1-2c0.2-0.8,0.3-2,0.3-3.7v-8.9h-17.2v8.9
			c0,1.6,0.1,2.9,0.3,3.7c0.2,0.8,0.5,1.5,1,2c0.4,0.5,0.9,0.8,1.5,1c0.6,0.2,1.3,0.4,2.3,0.4v0.6h-15.5v-0.6c0.9,0,1.7-0.2,2.3-0.4
			c0.6-0.2,1.1-0.6,1.5-1c0.5-0.5,0.9-1.2,1-2c0.2-0.8,0.3-2,0.3-3.7v-17.8c0-1.7-0.1-2.9-0.3-3.7c-0.2-0.8-0.5-1.4-1-2
			c-0.4-0.5-0.9-0.8-1.5-1c-0.6-0.2-1.3-0.3-2.3-0.4V258h15.5v0.6c-0.9,0-1.7,0.2-2.2,0.4c-0.6,0.2-1.1,0.5-1.5,1
			c-0.5,0.5-0.8,1.2-1,2s-0.3,2-0.3,3.7L-343.7,273.4L-343.7,273.4z"/>
		<path class="st1" d="M-312.3,291v-0.6c0.9,0,1.7-0.2,2.3-0.4c0.6-0.2,1.1-0.6,1.5-1c0.5-0.5,0.9-1.2,1-2c0.2-0.8,0.3-2,0.3-3.7
			v-17.8c0-1.7-0.1-2.9-0.3-3.7c-0.2-0.8-0.5-1.4-1-2c-0.4-0.5-0.9-0.8-1.5-1c-0.6-0.2-1.3-0.3-2.3-0.4V258h15.9c1.6,0,2.7,0,3.2,0
			c1.8,0.1,3.4,0.6,4.6,1.3c1,0.6,1.9,1.5,2.4,2.5c0.6,1,0.9,2.2,0.9,3.5c0,2.1-0.7,3.8-2,5.2c-0.5,0.5-1,0.9-1.6,1.2
			c-0.6,0.3-1.5,0.7-2.6,1.1c1.6,0.3,2.8,0.5,3.6,0.8c0.9,0.3,1.6,0.7,2.3,1.3c1,0.8,1.8,1.9,2.4,3.1c0.6,1.3,0.9,2.6,0.9,4.1
			c0,1.5-0.3,2.8-0.9,4c-0.6,1.2-1.4,2.2-2.5,2.9c-1,0.7-2.1,1.1-3.4,1.4c-1.3,0.3-3.2,0.4-5.6,0.4L-312.3,291L-312.3,291z
			 M-301.9,258.7v14.4h2c0.9,0,1.9-0.1,2.9-0.2c0.9-0.1,1.5-0.3,2.1-0.5c0.5-0.2,1-0.4,1.4-0.7c0.8-0.6,1.5-1.4,1.9-2.4
			c0.4-1,0.7-2,0.7-3.2c0-1.2-0.2-2.4-0.7-3.5c-0.5-1.1-1.1-2-1.8-2.6c-0.7-0.5-1.4-0.9-2.3-1.1c-0.8-0.2-2.1-0.3-3.9-0.3
			C-299.6,258.7-301.9,258.7-301.9,258.7z M-301.9,273.9v10c0,1.2,0.1,2.2,0.3,2.9c0.2,0.7,0.4,1.4,0.8,1.9c0.8,1.1,2.2,1.6,4.2,1.6
			c2.6,0,4.7-0.7,6.2-2.1c1.5-1.4,2.3-3.4,2.3-5.8c0-1.4-0.2-2.7-0.7-3.9c-0.5-1.2-1.1-2.1-1.9-2.8c-1.5-1.2-3.7-1.8-6.8-1.8
			L-301.9,273.9L-301.9,273.9z"/>
		<path class="st1" d="M-249.1,257.8l0.3,10.8h-0.6c-0.2-0.5-0.3-0.8-0.4-1.1c-0.6-1.6-1-2.7-1.4-3.5c-0.6-1.4-1.5-2.6-2.7-3.7
			c-0.9-0.9-1.8-1.5-2.8-1.9c-1-0.4-2.1-0.6-3.3-0.6c-1.8,0-3.4,0.4-4.7,1.2c-1.2,0.7-2.3,1.7-3.3,3c-1,1.3-1.8,2.8-2.5,4.4
			c-0.9,2.3-1.4,5-1.4,8c0,2.5,0.3,4.8,0.9,6.9c0.6,2,1.6,3.7,2.8,5.1c2.2,2.6,5.2,3.8,8.9,3.8c1.8,0,3.5-0.3,5-1
			c1.5-0.6,2.6-1.5,3.4-2.7c0.9-1.3,1.6-3.1,2-5.4l0.6,0.1c-0.3,2.6-1,4.6-2.1,6.1c-1,1.4-2.5,2.5-4.3,3.3c-1.8,0.8-3.9,1.1-6.3,1.1
			c-2.2,0-4.4-0.3-6.4-1c-3.2-1.1-5.8-3-7.6-5.8c-1.8-2.8-2.7-6.1-2.7-10c0-3,0.5-5.7,1.6-8.2c1.1-2.5,2.6-4.5,4.5-6
			c1.5-1.2,3.2-2.1,5.3-2.8c2-0.7,4.1-1,6.1-1c2,0,4,0.4,6.2,1.1l2,0.7c0.4,0.1,0.7,0.2,1,0.2c0.4,0,0.7-0.2,1-0.5
			c0.1-0.2,0.3-0.4,0.4-0.8L-249.1,257.8L-249.1,257.8z"/>
	</g>
	<g>
		<path class="st1" d="M-354.4,306.6v-0.2c0.3,0,0.5-0.1,0.7-0.1c0.2-0.1,0.3-0.2,0.5-0.3c0.2-0.2,0.3-0.4,0.3-0.6
			c0.1-0.3,0.1-0.6,0.1-1.2v-5.7c0-0.5,0-0.9-0.1-1.2c-0.1-0.3-0.2-0.5-0.3-0.6c-0.1-0.1-0.3-0.3-0.5-0.3c-0.2-0.1-0.4-0.1-0.7-0.1
			V296h5.1c0.5,0,0.9,0,1,0c0.6,0,1.1,0.2,1.5,0.4c0.3,0.2,0.6,0.5,0.8,0.8c0.2,0.3,0.3,0.7,0.3,1.1c0,0.7-0.2,1.2-0.6,1.7
			c-0.1,0.2-0.3,0.3-0.5,0.4c-0.2,0.1-0.5,0.2-0.8,0.4c0.5,0.1,0.9,0.2,1.2,0.3c0.3,0.1,0.5,0.2,0.7,0.4c0.3,0.3,0.6,0.6,0.8,1
			c0.2,0.4,0.3,0.8,0.3,1.3c0,0.5-0.1,0.9-0.3,1.3c-0.2,0.4-0.5,0.7-0.8,0.9c-0.3,0.2-0.7,0.4-1.1,0.4c-0.4,0.1-1,0.1-1.8,0.1
			C-348.7,306.6-354.4,306.6-354.4,306.6z M-351,296.3v4.6h0.6c0.3,0,0.6,0,0.9-0.1c0.3,0,0.5-0.1,0.7-0.1c0.2-0.1,0.3-0.1,0.5-0.2
			c0.3-0.2,0.5-0.4,0.6-0.8c0.1-0.3,0.2-0.6,0.2-1c0-0.4-0.1-0.8-0.2-1.1c-0.1-0.4-0.3-0.6-0.6-0.8c-0.2-0.2-0.5-0.3-0.7-0.3
			c-0.3-0.1-0.7-0.1-1.2-0.1C-350.3,296.3-351,296.3-351,296.3z M-351,301.1v3.2c0,0.4,0,0.7,0.1,0.9s0.1,0.4,0.3,0.6
			c0.3,0.3,0.7,0.5,1.4,0.5c0.8,0,1.5-0.2,2-0.7c0.5-0.5,0.7-1.1,0.7-1.9c0-0.4-0.1-0.9-0.2-1.2c-0.2-0.4-0.4-0.7-0.6-0.9
			c-0.5-0.4-1.2-0.6-2.2-0.6L-351,301.1L-351,301.1z"/>
		<path class="st1" d="M-331.8,301.4v2.7c0,0.5,0,0.9,0.1,1.2c0.1,0.3,0.2,0.5,0.3,0.6c0.1,0.1,0.3,0.3,0.5,0.3
			c0.2,0.1,0.4,0.1,0.7,0.1v0.2h-4.9v-0.2c0.3,0,0.5-0.1,0.7-0.1c0.2-0.1,0.3-0.2,0.5-0.3c0.2-0.2,0.3-0.4,0.3-0.6
			c0.1-0.3,0.1-0.6,0.1-1.2v-5.7c0-0.5,0-0.9-0.1-1.2c-0.1-0.3-0.2-0.5-0.3-0.6c-0.1-0.1-0.3-0.3-0.5-0.3c-0.2-0.1-0.4-0.1-0.7-0.1
			V296h3.7c0.6,0,1,0,1.2,0c0.8,0,1.4,0.1,1.9,0.3c0.5,0.2,0.9,0.5,1.2,0.9s0.4,0.9,0.4,1.4c0,0.8-0.3,1.4-0.9,1.9
			c-0.2,0.1-0.4,0.3-0.6,0.4c-0.2,0.1-0.5,0.2-0.9,0.3c0.3,0.1,0.5,0.3,0.7,0.4c0.1,0.1,0.2,0.2,0.3,0.4c0.1,0.2,0.2,0.4,0.4,0.9
			c0.5,0.9,0.8,1.6,1,2.1c0.2,0.4,0.4,0.7,0.6,0.9c0.1,0.2,0.3,0.3,0.4,0.3c0.1,0.1,0.3,0.1,0.5,0.1v0.2h-2.6
			c-0.1-0.3-0.2-0.5-0.2-0.5l-0.5-1.2c-0.3-0.7-0.7-1.4-1-2c-0.3-0.6-0.6-0.9-0.9-1.2c-0.1-0.1-0.3-0.2-0.4-0.2
			c-0.2,0-0.4-0.1-0.6-0.1C-331.5,301.4-331.8,301.4-331.8,301.4z M-331.8,301.2h0.3c0.6,0,1.1,0,1.4-0.1c0.3-0.1,0.5-0.2,0.8-0.4
			c0.5-0.5,0.8-1.2,0.8-1.9c0-0.4-0.1-0.8-0.2-1.1c-0.2-0.4-0.4-0.7-0.7-0.9c-0.2-0.2-0.5-0.3-0.8-0.4c-0.3-0.1-0.7-0.1-1.3-0.1
			h-0.3L-331.8,301.2L-331.8,301.2z"/>
		<path class="st1" d="M-316,301.4c0-0.9,0.2-1.7,0.6-2.4c0.4-0.7,0.9-1.4,1.6-1.9c0.5-0.4,1.1-0.7,1.7-0.9c0.6-0.2,1.2-0.3,1.9-0.3
			c0.8,0,1.6,0.2,2.3,0.5c0.7,0.3,1.4,0.8,1.9,1.5c0.9,1,1.4,2.2,1.4,3.5c0,0.7-0.1,1.3-0.4,1.9c-0.2,0.6-0.6,1.2-1,1.7
			c-0.6,0.6-1.2,1.1-2,1.5c-0.8,0.3-1.6,0.5-2.4,0.5c-0.8,0-1.6-0.2-2.3-0.5c-0.7-0.3-1.4-0.8-1.9-1.4c-0.4-0.5-0.8-1-1-1.6
			C-315.9,302.7-316,302-316,301.4z M-314.1,301.5c0,1.5,0.4,2.8,1.2,3.8c0.4,0.5,0.8,0.8,1.2,1c0.4,0.2,0.9,0.3,1.4,0.3
			c0.5,0,1-0.1,1.4-0.3c0.4-0.2,0.8-0.5,1.2-1c0.8-1,1.2-2.3,1.2-3.8c0-0.8-0.1-1.6-0.3-2.4c-0.2-0.7-0.5-1.4-0.9-1.9
			c-0.3-0.4-0.7-0.7-1.1-0.9c-0.4-0.2-0.9-0.3-1.4-0.3c-0.5,0-1,0.1-1.4,0.3c-0.4,0.2-0.8,0.5-1.1,0.9c-0.4,0.5-0.7,1.1-0.9,1.9
			C-314,299.8-314.1,300.6-314.1,301.5z"/>
		<path class="st1" d="M-291.7,301.2l3.3-3.2c0.3-0.3,0.5-0.5,0.6-0.7s0.1-0.2,0.1-0.4c0-0.3-0.1-0.4-0.4-0.6
			c-0.1-0.1-0.3-0.1-0.6-0.1V296h3.3v0.2c-0.2,0-0.4,0.1-0.6,0.1c-0.2,0.1-0.3,0.1-0.5,0.3c-0.2,0.1-0.5,0.5-1,0.9l-2.5,2.4l3.6,4.5
			l0.4,0.6c0.3,0.4,0.7,0.7,1,0.9c0.2,0.1,0.4,0.2,0.6,0.3c0.2,0.1,0.4,0.1,0.6,0.1v0.2h-5.1v-0.2c0.4,0,0.7-0.1,0.8-0.2
			c0.2-0.1,0.3-0.2,0.3-0.4c0-0.2-0.1-0.5-0.3-0.8c-0.1-0.2-0.3-0.4-0.6-0.8c-0.3-0.4-0.5-0.7-0.7-0.9l-1.7-2.2l-0.5,0.5v2.6
			c0,0.5,0,0.9,0.1,1.2c0.1,0.3,0.2,0.5,0.3,0.6c0.1,0.1,0.3,0.3,0.5,0.3c0.2,0.1,0.4,0.1,0.7,0.1v0.2h-4.9v-0.2
			c0.3,0,0.5-0.1,0.7-0.1c0.2-0.1,0.3-0.2,0.5-0.3c0.2-0.2,0.3-0.4,0.3-0.6c0.1-0.3,0.1-0.6,0.1-1.2v-5.7c0-0.5,0-0.9-0.1-1.2
			c-0.1-0.3-0.2-0.5-0.3-0.6c-0.1-0.1-0.3-0.3-0.5-0.3c-0.2-0.1-0.4-0.1-0.7-0.1V296h4.9v0.2c-0.3,0-0.5,0.1-0.7,0.1
			c-0.2,0.1-0.3,0.2-0.5,0.3c-0.2,0.2-0.3,0.4-0.3,0.6c-0.1,0.3-0.1,0.6-0.1,1.2L-291.7,301.2L-291.7,301.2z"/>
		<path class="st1" d="M-265.5,296l0.1,2.5l-0.2,0c-0.1-0.4-0.2-0.8-0.3-1.1c-0.2-0.3-0.4-0.5-0.7-0.7c-0.2-0.2-0.5-0.3-0.9-0.4
			c-0.3-0.1-0.8-0.1-1.3-0.1h-1.8v4.6h0.5c0.5,0,0.8,0,1.1-0.1c0.2-0.1,0.4-0.2,0.6-0.3c0.1-0.1,0.3-0.3,0.3-0.5
			c0.1-0.2,0.1-0.5,0.2-0.9l0.2,0l0,4.1h-0.2c0-0.4-0.1-0.7-0.2-1c-0.1-0.2-0.2-0.4-0.4-0.6c-0.2-0.2-0.4-0.3-0.6-0.4
			c-0.2-0.1-0.6-0.1-0.9-0.1h-0.4v1.8c0,0.7,0,1.2,0.1,1.5c0,0.3,0.1,0.6,0.2,0.8c0.2,0.4,0.4,0.6,0.8,0.8c0.4,0.2,0.8,0.3,1.4,0.3
			c0.6,0,1.1-0.1,1.6-0.2c0.4-0.2,0.8-0.4,1-0.7c0.2-0.2,0.3-0.5,0.5-0.8c0.1-0.3,0.2-0.7,0.3-1.1l0.2,0l-0.1,3.1h-9.2v-0.2
			c0.3,0,0.5-0.1,0.7-0.1c0.2-0.1,0.3-0.2,0.5-0.3c0.2-0.2,0.3-0.4,0.3-0.6c0.1-0.3,0.1-0.6,0.1-1.2v-5.7c0-0.5,0-0.9-0.1-1.2
			c-0.1-0.3-0.2-0.5-0.3-0.6c-0.1-0.1-0.3-0.3-0.5-0.3c-0.2-0.1-0.4-0.1-0.7-0.1V296L-265.5,296L-265.5,296z"/>
		<path class="st1" d="M-252.1,301.4v2.7c0,0.5,0,0.9,0.1,1.2c0.1,0.3,0.2,0.5,0.3,0.6c0.1,0.1,0.3,0.3,0.5,0.3
			c0.2,0.1,0.4,0.1,0.7,0.1v0.2h-4.9v-0.2c0.3,0,0.5-0.1,0.7-0.1c0.2-0.1,0.3-0.2,0.5-0.3c0.2-0.2,0.3-0.4,0.3-0.6
			c0.1-0.3,0.1-0.6,0.1-1.2v-5.7c0-0.5,0-0.9-0.1-1.2c-0.1-0.3-0.2-0.5-0.3-0.6c-0.1-0.1-0.3-0.3-0.5-0.3c-0.2-0.1-0.4-0.1-0.7-0.1
			V296h3.7c0.6,0,1,0,1.2,0c0.8,0,1.4,0.1,1.9,0.3c0.5,0.2,0.9,0.5,1.2,0.9c0.3,0.4,0.4,0.9,0.4,1.4c0,0.8-0.3,1.4-0.9,1.9
			c-0.2,0.1-0.4,0.3-0.6,0.4c-0.2,0.1-0.5,0.2-0.9,0.3c0.3,0.1,0.5,0.3,0.7,0.4c0.1,0.1,0.2,0.2,0.3,0.4c0.1,0.2,0.2,0.4,0.4,0.9
			c0.5,0.9,0.8,1.6,1,2.1c0.2,0.4,0.4,0.7,0.6,0.9c0.1,0.2,0.3,0.3,0.4,0.3c0.1,0.1,0.3,0.1,0.5,0.1v0.2h-2.6
			c-0.1-0.3-0.2-0.5-0.2-0.5l-0.5-1.2c-0.3-0.7-0.7-1.4-1-2c-0.3-0.6-0.6-0.9-0.9-1.2c-0.1-0.1-0.3-0.2-0.4-0.2
			c-0.2,0-0.4-0.1-0.6-0.1C-251.7,301.4-252.1,301.4-252.1,301.4z M-252.1,301.2h0.3c0.6,0,1.1,0,1.4-0.1c0.3-0.1,0.5-0.2,0.8-0.4
			c0.5-0.5,0.8-1.2,0.8-1.9c0-0.4-0.1-0.8-0.2-1.1c-0.2-0.4-0.4-0.7-0.7-0.9c-0.2-0.2-0.5-0.3-0.8-0.4c-0.3-0.1-0.7-0.1-1.3-0.1
			h-0.3L-252.1,301.2L-252.1,301.2z"/>
	</g>
</g>
<g>
	<polygon class="st2" points="-370.9,254.5 -394.9,254.5 -418.9,254.5 -430.8,268.4 -394.9,307 -359,268.4 	"/>
	<g>
		<polygon class="st3" points="-359,268.4 -376.3,268.4 -387,280.8 -377.3,288.1 		"/>
		<path class="st1" d="M-377.3,288.5c-0.1,0-0.2,0-0.2-0.1l-9.7-7.3c-0.1-0.1-0.1-0.2-0.2-0.3c0-0.1,0-0.2,0.1-0.3l10.7-12.4
			c0.1-0.1,0.2-0.1,0.3-0.1h17.3c0.2,0,0.3,0.1,0.4,0.2c0.1,0.1,0,0.3-0.1,0.4l-18.3,19.7C-377.1,288.5-377.2,288.5-377.3,288.5z
			 M-386.5,280.7l9.1,6.9l17.5-18.8h-16.2L-386.5,280.7z"/>
	</g>
	<g>
		<polygon class="st3" points="-387,290.2 -394.9,298 -402.8,290.2 -394.9,290.2 		"/>
		<path class="st1" d="M-394.9,298.4c-0.1,0-0.2,0-0.3-0.1l-7.9-7.9c-0.1-0.1-0.1-0.3-0.1-0.4c0.1-0.1,0.2-0.2,0.4-0.2h15.8
			c0.2,0,0.3,0.1,0.4,0.2c0.1,0.1,0,0.3-0.1,0.4l-7.9,7.9C-394.7,298.4-394.8,298.4-394.9,298.4z M-401.8,290.6l6.9,6.9l6.9-6.9
			C-388,290.6-401.8,290.6-401.8,290.6z"/>
	</g>
	<g>
		<polygon class="st3" points="-430.8,268.4 -413.5,268.4 -406.3,259.6 -418.9,254.5 		"/>
		<path class="st1" d="M-413.5,268.8h-17.3c-0.2,0-0.3-0.1-0.4-0.2c-0.1-0.1,0-0.3,0.1-0.4l11.9-13.9c0.1-0.1,0.3-0.2,0.4-0.1
			l12.6,5c0.1,0,0.2,0.1,0.2,0.3c0,0.1,0,0.2-0.1,0.3l-7.2,8.9C-413.3,268.8-413.4,268.8-413.5,268.8z M-429.9,268h16.2l6.8-8.3
			l-11.9-4.7L-429.9,268z"/>
	</g>
	<g>
		<polygon class="st3" points="-370.9,254.5 -394.9,264.1 -418.9,254.5 		"/>
		<path class="st1" d="M-394.9,264.5c0,0-0.1,0-0.1,0l-24-9.6c-0.2-0.1-0.3-0.3-0.2-0.4c0-0.2,0.2-0.3,0.4-0.3h48
			c0.2,0,0.3,0.1,0.4,0.3c0,0.2-0.1,0.4-0.2,0.4l-24,9.6C-394.8,264.5-394.8,264.5-394.9,264.5z M-416.9,254.9l22,8.8l22-8.8H-416.9
			z"/>
	</g>
	<g>
		<polygon class="st3" points="-430.8,268.4 -413.5,268.4 -402.8,280.8 -412.5,288.1 		"/>
		<path class="st1" d="M-412.5,288.5c-0.1,0-0.2,0-0.3-0.1l-18.3-19.7c-0.1-0.1-0.1-0.3-0.1-0.4c0.1-0.1,0.2-0.2,0.4-0.2h17.3
			c0.1,0,0.2,0,0.3,0.1l10.7,12.4c0.1,0.1,0.1,0.2,0.1,0.3c0,0.1-0.1,0.2-0.2,0.3l-9.7,7.3C-412.3,288.5-412.4,288.5-412.5,288.5z
			 M-429.9,268.8l17.5,18.8l9.1-6.9l-10.3-11.9L-429.9,268.8L-429.9,268.8z"/>
	</g>
	<g>
		<polygon class="st3" points="-394.9,307 -394.9,298 -402.8,290.2 -402.8,280.8 -412.5,288.1 		"/>
		<path class="st1" d="M-394.9,307.4c-0.1,0-0.2,0-0.3-0.1l-17.6-18.9c-0.1-0.1-0.1-0.2-0.1-0.3c0-0.1,0.1-0.2,0.2-0.3l9.7-7.3
			c0.1-0.1,0.3-0.1,0.4,0c0.1,0.1,0.2,0.2,0.2,0.3v9.2l7.8,7.8c0.1,0.1,0.1,0.2,0.1,0.3v9c0,0.2-0.1,0.3-0.2,0.4
			C-394.8,307.4-394.8,307.4-394.9,307.4z M-411.9,288.2l16.6,17.9v-7.9l-7.8-7.8c-0.1-0.1-0.1-0.2-0.1-0.3v-8.6L-411.9,288.2z"/>
	</g>
	<g>
		<polygon class="st3" points="-394.9,307 -394.9,298 -387,290.2 -387,280.8 -377.3,288.1 		"/>
		<path class="st1" d="M-394.9,307.4c0,0-0.1,0-0.1,0c-0.1-0.1-0.2-0.2-0.2-0.4v-9c0-0.1,0-0.2,0.1-0.3l7.8-7.8v-9.2
			c0-0.1,0.1-0.3,0.2-0.3c0.1-0.1,0.3-0.1,0.4,0l9.7,7.3c0.1,0.1,0.1,0.2,0.2,0.3c0,0.1,0,0.2-0.1,0.3l-17.6,18.9
			C-394.7,307.4-394.8,307.4-394.9,307.4z M-394.5,298.2v7.9l16.6-17.9l-8.7-6.6v8.6c0,0.1,0,0.2-0.1,0.3L-394.5,298.2z"/>
	</g>
	<polygon class="st1" points="-413.5,268.4 -402.8,280.8 -402.8,290.2 -387,290.2 -387,280.8 -376.3,268.4 -383.5,259.6 
		-394.9,264.1 -406.3,259.6 	"/>
	<path class="st3" d="M-382.5,267.3c-0.1-0.2-0.3-0.2-0.5-0.2l-7.4,2.5c-0.2,0.1-0.3,0.2-0.3,0.4v10.4h-8.6V270
		c0-0.2-0.1-0.3-0.3-0.4l-7.4-2.5c-0.2-0.1-0.4,0-0.5,0.2c-0.1,0.2-0.1,0.4,0.1,0.5l7.3,7v6.1h0c0,0.1,0,0.2,0.1,0.2l4.6,4.6v5.4
		h0.8v-5.4l4.6-4.6c0.1-0.1,0.1-0.1,0.1-0.2h0v-6.1l7.3-7C-382.4,267.6-382.4,267.4-382.5,267.3z"/>
	<g>
		<polygon class="st3" points="-359,268.4 -376.3,268.4 -383.5,259.6 -370.9,254.5 		"/>
		<path class="st1" d="M-359,268.8h-17.3c-0.1,0-0.2-0.1-0.3-0.1l-7.2-8.9c-0.1-0.1-0.1-0.2-0.1-0.3c0-0.1,0.1-0.2,0.2-0.3l12.6-5
			c0.2-0.1,0.3,0,0.4,0.1l11.9,13.9c0.1,0.1,0.1,0.3,0.1,0.4C-358.7,268.7-358.9,268.8-359,268.8z M-376.1,268h16.2l-11.1-13
			l-11.9,4.7L-376.1,268z"/>
	</g>
</g>
</svg>
