<svg id="Layer_1" xmlns="http://www.w3.org/2000/svg" width="185.8" height="53.8" viewBox="-431.2 254.1 185.8 53.8"><style>.st0{display:none;stroke:#000;stroke-miterlimit:10}.st1{fill:#fff}.st2{fill:none}.st3{fill:#be273c}</style><path class="st0" d="M-1354.2-214h1318v885h-1318z"/><path class="st1" d="M-343.7 273.4h17.2v-7.8c0-1.7-.1-2.9-.3-3.7-.2-.8-.5-1.4-1-2-.5-.5-1-.8-1.5-1-.6-.2-1.3-.3-2.3-.4v-.5h15.5v.6c-.9 0-1.7.2-2.2.4-.6.2-1.1.5-1.5 1-.5.5-.8 1.2-1 2-.2.8-.3 2-.3 3.7v17.8c0 1.6.1 2.9.3 3.7.2.8.5 1.5 1 2s1 .8 1.5 1c.6.2 1.3.4 2.2.4v.6h-15.5v-.6c.9 0 1.7-.2 2.3-.4.6-.2 1.1-.6 1.5-1 .5-.5.8-1.2 1-2 .2-.8.3-2 .3-3.7v-8.9h-17.2v8.9c0 1.6.1 2.9.3 3.7.2.8.5 1.5 1 2 .4.5.9.8 1.5 1 .6.2 1.3.4 2.3.4v.6h-15.5v-.6c.9 0 1.7-.2 2.3-.4.6-.2 1.1-.6 1.5-1 .5-.5.9-1.2 1-2 .2-.8.3-2 .3-3.7v-17.8c0-1.7-.1-2.9-.3-3.7-.2-.8-.5-1.4-1-2-.4-.5-.9-.8-1.5-1-.6-.2-1.3-.3-2.3-.4v-.6h15.5v.6c-.9 0-1.7.2-2.2.4-.6.2-1.1.5-1.5 1-.5.5-.8 1.2-1 2s-.3 2-.3 3.7l-.1 7.7zm31.4 17.6v-.6c.9 0 1.7-.2 2.3-.4.6-.2 1.1-.6 1.5-1 .5-.5.9-1.2 1-2 .2-.8.3-2 .3-3.7v-17.8c0-1.7-.1-2.9-.3-3.7-.2-.8-.5-1.4-1-2-.4-.5-.9-.8-1.5-1-.6-.2-1.3-.3-2.3-.4v-.4h19.1c1.8.1 3.4.6 4.6 1.3 1 .6 1.9 1.5 2.4 2.5.6 1 .9 2.2.9 3.5 0 2.1-.7 3.8-2 5.2-.5.5-1 .9-1.6 1.2-.6.3-1.5.7-2.6 1.1 1.6.3 2.8.5 3.6.8.9.3 1.6.7 2.3 1.3 1 .8 1.8 1.9 2.4 3.1.6 1.3.9 2.6.9 4.1 0 1.5-.3 2.8-.9 4-.6 1.2-1.4 2.2-2.5 2.9-1 .7-2.1 1.1-3.4 1.4-1.3.3-3.2.4-5.6.4l-17.6.2zm10.4-32.3v14.4h2c.9 0 1.9-.1 2.9-.2.9-.1 1.5-.3 2.1-.5.5-.2 1-.4 1.4-.7.8-.6 1.5-1.4 1.9-2.4.4-1 .7-2 .7-3.2 0-1.2-.2-2.4-.7-3.5-.5-1.1-1.1-2-1.8-2.6-.7-.5-1.4-.9-2.3-1.1-.8-.2-2.1-.3-3.9-.3 0 .1-2.3.1-2.3.1zm0 15.2v10c0 1.2.1 2.2.3 2.9.2.7.4 1.4.8 1.9.8 1.1 2.2 1.6 4.2 1.6 2.6 0 4.7-.7 6.2-2.1 1.5-1.4 2.3-3.4 2.3-5.8 0-1.4-.2-2.7-.7-3.9-.5-1.2-1.1-2.1-1.9-2.8-1.5-1.2-3.7-1.8-6.8-1.8h-4.4zm52.8-16.1l.3 10.8h-.6c-.2-.5-.3-.8-.4-1.1-.6-1.6-1-2.7-1.4-3.5-.6-1.4-1.5-2.6-2.7-3.7-.9-.9-1.8-1.5-2.8-1.9-1-.4-2.1-.6-3.3-.6-1.8 0-3.4.4-4.7 1.2-1.2.7-2.3 1.7-3.3 3s-1.8 2.8-2.5 4.4c-.9 2.3-1.4 5-1.4 8 0 2.5.3 4.8.9 6.9.6 2 1.6 3.7 2.8 5.1 2.2 2.6 5.2 3.8 8.9 3.8 1.8 0 3.5-.3 5-1 1.5-.6 2.6-1.5 3.4-2.7.9-1.3 1.6-3.1 2-5.4l.6.1c-.3 2.6-1 4.6-2.1 6.1-1 1.4-2.5 2.5-4.3 3.3-1.8.8-3.9 1.1-6.3 1.1-2.2 0-4.4-.3-6.4-1-3.2-1.1-5.8-3-7.6-5.8-1.8-2.8-2.7-6.1-2.7-10 0-3 .5-5.7 1.6-8.2 1.1-2.5 2.6-4.5 4.5-6 1.5-1.2 3.2-2.1 5.3-2.8 2-.7 4.1-1 6.1-1s4 .4 6.2 1.1l2 .7c.4.1.7.2 1 .2.4 0 .7-.2 1-.5.1-.2.3-.4.4-.8l.5.2zm-105.3 48.8v-.2c.3 0 .5-.1.7-.1.2-.1.3-.2.5-.3.2-.2.3-.4.3-.6.1-.3.1-.6.1-1.2v-5.7c0-.5 0-.9-.1-1.2-.1-.3-.2-.5-.3-.6-.1-.1-.3-.3-.5-.3-.2-.1-.4-.1-.7-.1v-.3h6.1c.6 0 1.1.2 1.5.4.3.2.6.5.8.8.2.3.3.7.3 1.1 0 .7-.2 1.2-.6 1.7-.1.2-.3.3-.5.4-.2.1-.5.2-.8.4.5.1.9.2 1.2.3.3.1.5.2.7.4.3.3.6.6.8 1 .2.4.3.8.3 1.3s-.1.9-.3 1.3c-.2.4-.5.7-.8.9-.3.2-.7.4-1.1.4-.4.1-1 .1-1.8.1-.1.1-5.8.1-5.8.1zm3.4-10.3v4.6h.6c.3 0 .6 0 .9-.1.3 0 .5-.1.7-.1.2-.1.3-.1.5-.2.3-.2.5-.4.6-.8.1-.3.2-.6.2-1s-.1-.8-.2-1.1c-.1-.4-.3-.6-.6-.8-.2-.2-.5-.3-.7-.3-.3-.1-.7-.1-1.2-.1-.1-.1-.8-.1-.8-.1zm0 4.8v3.2c0 .4 0 .7.1.9s.1.4.3.6c.3.3.7.5 1.4.5.8 0 1.5-.2 2-.7.5-.5.7-1.1.7-1.9 0-.4-.1-.9-.2-1.2-.2-.4-.4-.7-.6-.9-.5-.4-1.2-.6-2.2-.6l-1.5.1zm19.2.3v2.7c0 .5 0 .9.1 1.2.1.3.2.5.3.6.1.1.3.3.5.3.2.1.4.1.7.1v.2h-4.9v-.2c.3 0 .5-.1.7-.1.2-.1.3-.2.5-.3.2-.2.3-.4.3-.6.1-.3.1-.6.1-1.2v-5.7c0-.5 0-.9-.1-1.2-.1-.3-.2-.5-.3-.6-.1-.1-.3-.3-.5-.3-.2-.1-.4-.1-.7-.1v-.2h4.9c.8 0 1.4.1 1.9.3.5.2.9.5 1.2.9s.4.9.4 1.4c0 .8-.3 1.4-.9 1.9-.2.1-.4.3-.6.4-.2.1-.5.2-.9.3.3.1.5.3.7.4.1.1.2.2.3.4.1.2.2.4.4.9.5.9.8 1.6 1 2.1.2.4.4.7.6.9.1.2.3.3.4.3.1.1.3.1.5.1v.2h-2.6c-.1-.3-.2-.5-.2-.5l-.5-1.2c-.3-.7-.7-1.4-1-2-.3-.6-.6-.9-.9-1.2-.1-.1-.3-.2-.4-.2-.2 0-.4-.1-.6-.1-.1.1-.4.1-.4.1zm0-.2h.3c.6 0 1.1 0 1.4-.1.3-.1.5-.2.8-.4.5-.5.8-1.2.8-1.9 0-.4-.1-.8-.2-1.1-.2-.4-.4-.7-.7-.9-.2-.2-.5-.3-.8-.4-.3-.1-.7-.1-1.3-.1h-.3v4.9zm15.8.2c0-.9.2-1.7.6-2.4.4-.7.9-1.4 1.6-1.9.5-.4 1.1-.7 1.7-.9.6-.2 1.2-.3 1.9-.3.8 0 1.6.2 2.3.5.7.3 1.4.8 1.9 1.5.9 1 1.4 2.2 1.4 3.5 0 .7-.1 1.3-.4 1.9-.2.6-.6 1.2-1 1.7-.6.6-1.2 1.1-2 1.5-.8.3-1.6.5-2.4.5-.8 0-1.6-.2-2.3-.5-.7-.3-1.4-.8-1.9-1.4-.4-.5-.8-1-1-1.6-.3-.8-.4-1.5-.4-2.1zm1.9.1c0 1.5.4 2.8 1.2 3.8.4.5.8.8 1.2 1 .4.2.9.3 1.4.3.5 0 1-.1 1.4-.3.4-.2.8-.5 1.2-1 .8-1 1.2-2.3 1.2-3.8 0-.8-.1-1.6-.3-2.4-.2-.7-.5-1.4-.9-1.9-.3-.4-.7-.7-1.1-.9-.4-.2-.9-.3-1.4-.3-.5 0-1 .1-1.4.3-.4.2-.8.5-1.1.9-.4.5-.7 1.1-.9 1.9-.4.7-.5 1.5-.5 2.4zm22.4-.3l3.3-3.2c.3-.3.5-.5.6-.7s.1-.2.1-.4c0-.3-.1-.4-.4-.6-.1-.1-.3-.1-.6-.1v-.2h3.3v.2c-.2 0-.4.1-.6.1-.2.1-.3.1-.5.3-.2.1-.5.5-1 .9l-2.5 2.4 3.6 4.5.4.6c.3.4.7.7 1 .9l.6.3c.2.1.4.1.6.1v.2h-5.1v-.2c.4 0 .7-.1.8-.2.2-.1.3-.2.3-.4s-.1-.5-.3-.8c-.1-.2-.3-.4-.6-.8s-.5-.7-.7-.9l-1.7-2.2-.5.5v2.6c0 .5 0 .9.1 1.2.1.3.2.5.3.6.1.1.3.3.5.3.2.1.4.1.7.1v.2h-4.9v-.2c.3 0 .5-.1.7-.1.2-.1.3-.2.5-.3.2-.2.3-.4.3-.6.1-.3.1-.6.1-1.2v-5.7c0-.5 0-.9-.1-1.2-.1-.3-.2-.5-.3-.6-.1-.1-.3-.3-.5-.3-.2-.1-.4-.1-.7-.1v-.2h4.9v.2c-.3 0-.5.1-.7.1-.2.1-.3.2-.5.3-.2.2-.3.4-.3.6-.1.3-.1.6-.1 1.2l-.1 2.8zm26.2-5.2l.1 2.5h-.2c-.1-.4-.2-.8-.3-1.1-.2-.3-.4-.5-.7-.7-.2-.2-.5-.3-.9-.4-.3-.1-.8-.1-1.3-.1h-1.8v4.6h.5c.5 0 .8 0 1.1-.1l.6-.3c.1-.1.3-.3.3-.5.1-.2.1-.5.2-.9h.2v4.1h-.2c0-.4-.1-.7-.2-1-.1-.2-.2-.4-.4-.6-.2-.2-.4-.3-.6-.4-.2-.1-.6-.1-.9-.1h-.4v1.8c0 .7 0 1.2.1 1.5 0 .3.1.6.2.8.2.4.4.6.8.8.4.2.8.3 1.4.3.6 0 1.1-.1 1.6-.2.4-.2.8-.4 1-.7.2-.2.3-.5.5-.8.1-.3.2-.7.3-1.1h.2l-.1 3.1h-9.2v-.2c.3 0 .5-.1.7-.1.2-.1.3-.2.5-.3.2-.2.3-.4.3-.6.1-.3.1-.6.1-1.2v-5.7c0-.5 0-.9-.1-1.2-.1-.3-.2-.5-.3-.6-.1-.1-.3-.3-.5-.3-.2-.1-.4-.1-.7-.1v-.2h8.1zm13.4 5.4v2.7c0 .5 0 .9.1 1.2.1.3.2.5.3.6.1.1.3.3.5.3.2.1.4.1.7.1v.2h-4.9v-.2c.3 0 .5-.1.7-.1.2-.1.3-.2.5-.3.2-.2.3-.4.3-.6.1-.3.1-.6.1-1.2v-5.7c0-.5 0-.9-.1-1.2-.1-.3-.2-.5-.3-.6-.1-.1-.3-.3-.5-.3-.2-.1-.4-.1-.7-.1v-.2h4.9c.8 0 1.4.1 1.9.3.5.2.9.5 1.2.9.3.4.4.9.4 1.4 0 .8-.3 1.4-.9 1.9-.2.1-.4.3-.6.4-.2.1-.5.2-.9.3.3.1.5.3.7.4.1.1.2.2.3.4.1.2.2.4.4.9.5.9.8 1.6 1 2.1.2.4.4.7.6.9.1.2.3.3.4.3.1.1.3.1.5.1v.2h-2.6c-.1-.3-.2-.5-.2-.5l-.5-1.2c-.3-.7-.7-1.4-1-2-.3-.6-.6-.9-.9-1.2-.1-.1-.3-.2-.4-.2-.2 0-.4-.1-.6-.1 0 .1-.4.1-.4.1zm0-.2h.3c.6 0 1.1 0 1.4-.1.3-.1.5-.2.8-.4.5-.5.8-1.2.8-1.9 0-.4-.1-.8-.2-1.1-.2-.4-.4-.7-.7-.9-.2-.2-.5-.3-.8-.4-.3-.1-.7-.1-1.3-.1h-.3v4.9z"/><path class="st2" d="M-370.9 254.5h-48l-11.9 13.9 35.9 38.6 35.9-38.6z"/><path class="st3" d="M-359 268.4h-17.3l-10.7 12.4 9.7 7.3z"/><path class="st1" d="M-377.3 288.5c-.1 0-.2 0-.2-.1l-9.7-7.3c-.1-.1-.1-.2-.2-.3 0-.1 0-.2.1-.3l10.7-12.4c.1-.1.2-.1.3-.1h17.3c.2 0 .3.1.4.2.1.1 0 .3-.1.4l-18.3 19.7c-.1.2-.2.2-.3.2zm-9.2-7.8l9.1 6.9 17.5-18.8h-16.2l-10.4 11.9z"/><path class="st3" d="M-387 290.2l-7.9 7.8-7.9-7.8h7.9z"/><path class="st1" d="M-394.9 298.4c-.1 0-.2 0-.3-.1l-7.9-7.9c-.1-.1-.1-.3-.1-.4.1-.1.2-.2.4-.2h15.8c.2 0 .3.1.4.2.1.1 0 .3-.1.4l-7.9 7.9c-.1.1-.2.1-.3.1zm-6.9-7.8l6.9 6.9 6.9-6.9h-13.8z"/><path class="st3" d="M-430.8 268.4h17.3l7.2-8.8-12.6-5.1z"/><path class="st1" d="M-413.5 268.8h-17.3c-.2 0-.3-.1-.4-.2-.1-.1 0-.3.1-.4l11.9-13.9c.1-.1.3-.2.4-.1l12.6 5c.1 0 .2.1.2.3 0 .1 0 .2-.1.3l-7.2 8.9c0 .1-.1.1-.2.1zm-16.4-.8h16.2l6.8-8.3-11.9-4.7-11.1 13z"/><path class="st3" d="M-370.9 254.5l-24 9.6-24-9.6z"/><path class="st1" d="M-394.9 264.5h-.1l-24-9.6c-.2-.1-.3-.3-.2-.4 0-.2.2-.3.4-.3h48c.2 0 .3.1.4.3 0 .2-.1.4-.2.4l-24 9.6h-.3zm-22-9.6l22 8.8 22-8.8h-44z"/><path class="st3" d="M-430.8 268.4h17.3l10.7 12.4-9.7 7.3z"/><path class="st1" d="M-412.5 288.5c-.1 0-.2 0-.3-.1l-18.3-19.7c-.1-.1-.1-.3-.1-.4.1-.1.2-.2.4-.2h17.3c.1 0 .2 0 .3.1l10.7 12.4c.1.1.1.2.1.3 0 .1-.1.2-.2.3l-9.7 7.3h-.2zm-17.4-19.7l17.5 18.8 9.1-6.9-10.3-11.9h-16.3z"/><path class="st3" d="M-394.9 307v-9l-7.9-7.8v-9.4l-9.7 7.3z"/><path class="st1" d="M-394.9 307.4c-.1 0-.2 0-.3-.1l-17.6-18.9c-.1-.1-.1-.2-.1-.3 0-.1.1-.2.2-.3l9.7-7.3c.1-.1.3-.1.4 0 .1.1.2.2.2.3v9.2l7.8 7.8c.1.1.1.2.1.3v9c0 .2-.1.3-.2.4-.1-.1-.1-.1-.2-.1zm-17-19.2l16.6 17.9v-7.9l-7.8-7.8c-.1-.1-.1-.2-.1-.3v-8.6l-8.7 6.7z"/><path class="st3" d="M-394.9 307v-9l7.9-7.8v-9.4l9.7 7.3z"/><path class="st1" d="M-394.9 307.4h-.1c-.1-.1-.2-.2-.2-.4v-9c0-.1 0-.2.1-.3l7.8-7.8v-9.2c0-.1.1-.3.2-.3.1-.1.3-.1.4 0l9.7 7.3c.1.1.1.2.2.3 0 .1 0 .2-.1.3l-17.6 18.9c-.2.2-.3.2-.4.2zm.4-9.2v7.9l16.6-17.9-8.7-6.6v8.6c0 .1 0 .2-.1.3l-7.8 7.7z"/><path class="st1" d="M-413.5 268.4l10.7 12.4v9.4h15.8v-9.4l10.7-12.4-7.2-8.8-11.4 4.5-11.4-4.5z"/><path class="st3" d="M-382.5 267.3c-.1-.2-.3-.2-.5-.2l-7.4 2.5c-.2.1-.3.2-.3.4v10.4h-8.6V270c0-.2-.1-.3-.3-.4l-7.4-2.5c-.2-.1-.4 0-.5.2-.1.2-.1.4.1.5l7.3 7v6.1c0 .1 0 .2.1.2l4.6 4.6v5.4h.8v-5.4l4.6-4.6c.1-.1.1-.1.1-.2v-6.1l7.3-7c.2-.2.2-.4.1-.5zm23.5 1.1h-17.3l-7.2-8.8 12.6-5.1z"/><path class="st1" d="M-359 268.8h-17.3c-.1 0-.2-.1-.3-.1l-7.2-8.9c-.1-.1-.1-.2-.1-.3 0-.1.1-.2.2-.3l12.6-5c.2-.1.3 0 .4.1l11.9 13.9c.1.1.1.3.1.4 0 .1-.2.2-.3.2zm-17.1-.8h16.2l-11.1-13-11.9 4.7 6.8 8.3z"/></svg>